<svg width="132" height="135" viewBox="0 0 132 135" fill="none" xmlns="http://www.w3.org/2000/svg">
<path d="M0 20C0 14.4772 4.47715 10 10 10H27C32.5228 10 37 14.4772 37 20V135H10C4.47715 135 0 130.523 0 125V20Z" fill="url(#paint0_linear_2_14)"/>
<mask id="path-2-inside-1_2_14" fill="white">
<path d="M37 10H66V135H37V10Z"/>
</mask>
<path d="M37 10H66V135H37V10Z" fill="url(#paint1_linear_2_14)"/>
<path d="M65.5 10V135H66.5V10H65.5ZM38 135V10H36V135H38Z" fill="#D2D2D2" mask="url(#path-2-inside-1_2_14)"/>
<g filter="url(#filter0_d_2_14)">
<path d="M28 10H47V62C47 66.4183 43.4183 70 39 70H36C31.5817 70 28 66.4183 28 62V10Z" fill="url(#paint2_linear_2_14)"/>
</g>
<mask id="path-5-inside-2_2_14" fill="white">
<path d="M66 10H95V135H66V10Z"/>
</mask>
<path d="M66 10H95V135H66V10Z" fill="url(#paint3_linear_2_14)"/>
<path d="M94 10V135H96V10H94ZM66.5 135V10H65.5V135H66.5Z" fill="#D2D2D2" mask="url(#path-5-inside-2_2_14)"/>
<g filter="url(#filter1_d_2_14)">
<path d="M57 10H76V72C76 76.4183 72.4183 80 68 80H65C60.5817 80 57 76.4183 57 72V10Z" fill="url(#paint4_linear_2_14)"/>
</g>
<path d="M95 10H122C127.523 10 132 14.4772 132 20V125C132 130.523 127.523 135 122 135H95V10Z" fill="url(#paint5_linear_2_14)"/>
<g filter="url(#filter2_d_2_14)">
<path d="M85 10H104V82C104 86.4183 100.418 90 96 90H93C88.5817 90 85 86.4183 85 82V10Z" fill="url(#paint6_linear_2_14)"/>
</g>
<defs>
<filter id="filter0_d_2_14" x="18" y="0" width="39" height="80" filterUnits="userSpaceOnUse" color-interpolation-filters="sRGB">
<feFlood flood-opacity="0" result="BackgroundImageFix"/>
<feColorMatrix in="SourceAlpha" type="matrix" values="0 0 0 0 0 0 0 0 0 0 0 0 0 0 0 0 0 0 127 0" result="hardAlpha"/>
<feMorphology radius="2" operator="dilate" in="SourceAlpha" result="effect1_dropShadow_2_14"/>
<feOffset/>
<feGaussianBlur stdDeviation="4"/>
<feComposite in2="hardAlpha" operator="out"/>
<feColorMatrix type="matrix" values="0 0 0 0 0 0 0 0 0 0 0 0 0 0 0 0 0 0 0.25 0"/>
<feBlend mode="normal" in2="BackgroundImageFix" result="effect1_dropShadow_2_14"/>
<feBlend mode="normal" in="SourceGraphic" in2="effect1_dropShadow_2_14" result="shape"/>
</filter>
<filter id="filter1_d_2_14" x="47" y="0" width="39" height="90" filterUnits="userSpaceOnUse" color-interpolation-filters="sRGB">
<feFlood flood-opacity="0" result="BackgroundImageFix"/>
<feColorMatrix in="SourceAlpha" type="matrix" values="0 0 0 0 0 0 0 0 0 0 0 0 0 0 0 0 0 0 127 0" result="hardAlpha"/>
<feMorphology radius="2" operator="dilate" in="SourceAlpha" result="effect1_dropShadow_2_14"/>
<feOffset/>
<feGaussianBlur stdDeviation="4"/>
<feComposite in2="hardAlpha" operator="out"/>
<feColorMatrix type="matrix" values="0 0 0 0 0 0 0 0 0 0 0 0 0 0 0 0 0 0 0.25 0"/>
<feBlend mode="normal" in2="BackgroundImageFix" result="effect1_dropShadow_2_14"/>
<feBlend mode="normal" in="SourceGraphic" in2="effect1_dropShadow_2_14" result="shape"/>
</filter>
<filter id="filter2_d_2_14" x="75" y="0" width="39" height="100" filterUnits="userSpaceOnUse" color-interpolation-filters="sRGB">
<feFlood flood-opacity="0" result="BackgroundImageFix"/>
<feColorMatrix in="SourceAlpha" type="matrix" values="0 0 0 0 0 0 0 0 0 0 0 0 0 0 0 0 0 0 127 0" result="hardAlpha"/>
<feMorphology radius="2" operator="dilate" in="SourceAlpha" result="effect1_dropShadow_2_14"/>
<feOffset/>
<feGaussianBlur stdDeviation="4"/>
<feComposite in2="hardAlpha" operator="out"/>
<feColorMatrix type="matrix" values="0 0 0 0 0 0 0 0 0 0 0 0 0 0 0 0 0 0 0.25 0"/>
<feBlend mode="normal" in2="BackgroundImageFix" result="effect1_dropShadow_2_14"/>
<feBlend mode="normal" in="SourceGraphic" in2="effect1_dropShadow_2_14" result="shape"/>
</filter>
<linearGradient id="paint0_linear_2_14" x1="18.5" y1="-14.6479" x2="18.5" y2="192.042" gradientUnits="userSpaceOnUse">
<stop stop-color="#FFFFFD"/>
<stop offset="1" stop-color="#CBCBCB"/>
<stop offset="1" stop-color="#D4D4D4"/>
</linearGradient>
<linearGradient id="paint1_linear_2_14" x1="51.5" y1="-14.6479" x2="51.5" y2="192.042" gradientUnits="userSpaceOnUse">
<stop stop-color="#FFFFFD"/>
<stop offset="1" stop-color="#CBCBCB"/>
<stop offset="1" stop-color="#D4D4D4"/>
</linearGradient>
<linearGradient id="paint2_linear_2_14" x1="37.5" y1="-1.83099" x2="37.5" y2="97.3803" gradientUnits="userSpaceOnUse">
<stop stop-color="#040404"/>
<stop offset="1" stop-color="#575656"/>
<stop offset="1" stop-color="#343434"/>
</linearGradient>
<linearGradient id="paint3_linear_2_14" x1="80.5" y1="-14.6479" x2="80.5" y2="192.042" gradientUnits="userSpaceOnUse">
<stop stop-color="#FFFFFD"/>
<stop offset="1" stop-color="#CBCBCB"/>
<stop offset="1" stop-color="#D4D4D4"/>
</linearGradient>
<linearGradient id="paint4_linear_2_14" x1="66.5" y1="-3.80282" x2="66.5" y2="111.944" gradientUnits="userSpaceOnUse">
<stop stop-color="#040404"/>
<stop offset="1" stop-color="#575656"/>
<stop offset="1" stop-color="#343434"/>
</linearGradient>
<linearGradient id="paint5_linear_2_14" x1="113.5" y1="-14.6479" x2="113.5" y2="192.042" gradientUnits="userSpaceOnUse">
<stop stop-color="#FFFFFD"/>
<stop offset="1" stop-color="#CBCBCB"/>
<stop offset="1" stop-color="#D4D4D4"/>
</linearGradient>
<linearGradient id="paint6_linear_2_14" x1="94.5" y1="-5.77465" x2="94.5" y2="126.507" gradientUnits="userSpaceOnUse">
<stop stop-color="#040404"/>
<stop offset="1" stop-color="#575656"/>
<stop offset="1" stop-color="#343434"/>
</linearGradient>
</defs>
</svg>
